<svg width="24" height="24" viewBox="0 0 24 24" fill="none" xmlns="http://www.w3.org/2000/svg">
  <path d="M12 20H2v-2h10v2zm1.5-5c0 .8-.7 1.5-1.5 1.5s-1.5-.7-1.5-1.5.7-1.5 1.5-1.5 1.5.7 1.5 1.5zM17.5 9c0 .8-.7 1.5-1.5 1.5S14.5 9.8 14.5 9s.7-1.5 1.5-1.5S17.5 8.2 17.5 9zM12 18c.8 0 1.5-.7 1.5-1.5S12.8 15 12 15s-1.5.7-1.5 1.5S11.2 18 12 18zM7.5 12c0 .8-.7 1.5-1.5 1.5S4.5 12.8 4.5 12 5.2 10.5 6 10.5 7.5 11.2 7.5 12z" fill="#84cc16"/>
  <path d="M12 4l1.5 4.5L18 10l-4.5 1.5L12 16l-1.5-4.5L6 10l4.5-1.5L12 4z" fill="#84cc16"/>
</svg>