<svg width="24" height="24" viewBox="0 0 24 24" fill="none" xmlns="http://www.w3.org/2000/svg">
  <path d="M19 3H5c-1.1 0-2 .9-2 2v14c0 1.1.9 2 2 2h14c1.1 0 2-.9 2-2V5c0-1.1-.9-2-2-2zm-5.97 7.53L14 9.5l-1.03-1.03-.69.69-.69-.69-.69.69-.7-.69L9.17 9.2l.7.69-.7.69.7.69-.69.69.69.69-.7.69.7.7.69-.7.7.7.69-.7.69.7.7-.7-.7-.69.7-.69-.7-.69.7-.69-.69-.69.69-.69z" fill="#3b82f6"/>
  <circle cx="12" cy="12" r="2" fill="#60a5fa"/>
  <path d="M12 8c-2.21 0-4 1.79-4 4s1.79 4 4 4 4-1.79 4-4-1.79-4-4-4zm0 6c-1.1 0-2-.9-2-2s.9-2 2-2 2 .9 2 2-.9 2-2 2z" fill="#3b82f6"/>
</svg>