<svg width="24" height="24" viewBox="0 0 24 24" fill="none" xmlns="http://www.w3.org/2000/svg">
  <path d="M13.783 15.172l2.121-2.121 5.996 5.996-2.121 2.121z" fill="#6b7280"/>
  <path d="M17.5 10c1.93 0 3.5-1.57 3.5-3.5 0-.58-.16-1.12-.41-1.6l-2.7 2.7-1.49-1.49 2.7-2.7c-.48-.25-1.02-.41-1.6-.41C15.57 3 14 4.57 14 6.5c0 .41.08.8.21 1.16l-1.85 1.85-1.78-1.78.71-.71-1.41-1.41L8.5 7 7 8.5l1.41 1.41.71-.71 1.78 1.78L8.15 13.73c-.36-.13-.75-.21-1.16-.21C5.57 13.52 4 15.09 4 17.02s1.57 3.5 3.5 3.5 3.5-1.57 3.5-3.5c0-.41-.08-.8-.21-1.16l2.74-2.74z" fill="#6b7280"/>
</svg>